<?xml version="1.0" encoding="UTF-8" standalone="no"?>
<!-- Gnu Emacs Icon

   Copyright (C) 2008, 2009
   Free Software Foundation, Inc.

   This file is part of GNU Emacs.

   GNU Emacs is free software: you can redistribute it and/or modify
   it under the terms of the GNU General Public License as published by
   the Free Software Foundation; either version 3 of the License, or
   (at your option) any later version.

   GNU Emacs is distributed in the hope that it will be useful,
   but WITHOUT ANY WARRANTY; without even the implied warranty of
   MERCHANTABILITY or FITNESS FOR A PARTICULAR PURPOSE.  See the
   GNU General Public License for more details.

   You should have received a copy of the GNU General Public License
   along with GNU Emacs.  If not, see <http://www.gnu.org/licenses/>.

-->

<!-- Created with Inkscape (http://www.inkscape.org/) -->

<svg
   xmlns:dc="http://purl.org/dc/elements/1.1/"
   xmlns:cc="http://creativecommons.org/ns#"
   xmlns:rdf="http://www.w3.org/1999/02/22-rdf-syntax-ns#"
   xmlns:svg="http://www.w3.org/2000/svg"
   xmlns="http://www.w3.org/2000/svg"
   xmlns:xlink="http://www.w3.org/1999/xlink"
   xmlns:sodipodi="http://sodipodi.sourceforge.net/DTD/sodipodi-0.dtd"
   xmlns:inkscape="http://www.inkscape.org/namespaces/inkscape"
   version="1.0"
   width="48"
   height="48"
   viewBox="0.171 0.201 512 512"
   id="svg4768"
   xml:space="preserve"
   inkscape:version="0.48.2 r9819"
   sodipodi:docname="emacs-p.svg"
   inkscape:export-filename="c:\tmp\emacs-p-32.png"
   inkscape:export-xdpi="60"
   inkscape:export-ydpi="60"><metadata
   id="metadata3053"><rdf:RDF><cc:Work
       rdf:about=""><dc:format>image/svg+xml</dc:format><dc:type
         rdf:resource="http://purl.org/dc/dcmitype/StillImage" /><dc:title></dc:title></cc:Work></rdf:RDF></metadata><sodipodi:namedview
   pagecolor="#ffffff"
   bordercolor="#666666"
   borderopacity="1"
   objecttolerance="10"
   gridtolerance="10"
   guidetolerance="10"
   inkscape:pageopacity="0"
   inkscape:pageshadow="2"
   inkscape:window-width="1600"
   inkscape:window-height="853"
   id="namedview3051"
   showgrid="false"
   inkscape:zoom="6.4368932"
   inkscape:cx="66.124745"
   inkscape:cy="17.302613"
   inkscape:window-x="-4"
   inkscape:window-y="-4"
   inkscape:window-maximized="1"
   inkscape:current-layer="svg4768" />
<defs
   id="defs4770"><linearGradient
   id="linearGradient3294"><stop
     id="stop3296"
     style="stop-color: rgb(99, 118, 230); stop-opacity: 1;"
     offset="0" /><stop
     id="stop3302"
     style="stop-color: rgb(34, 41, 137); stop-opacity: 1;"
     offset="0.50094414" /><stop
     id="stop3298"
     style="stop-color: rgb(0, 0, 61); stop-opacity: 1;"
     offset="1" /></linearGradient><linearGradient
   id="linearGradient3284"><stop
     id="stop3286"
     style="stop-color: rgb(0, 0, 0); stop-opacity: 1;"
     offset="0" /><stop
     id="stop3292"
     style="stop-color: rgb(0, 0, 0); stop-opacity: 0.498039;"
     offset="0.84845906" /><stop
     id="stop3288"
     style="stop-color: rgb(0, 0, 0); stop-opacity: 0;"
     offset="1" /></linearGradient><linearGradient
   id="linearGradient3274"><stop
     id="stop3276"
     style="stop-color: rgb(0, 0, 0); stop-opacity: 1;"
     offset="0" /><stop
     id="stop3278"
     style="stop-color: rgb(0, 0, 0); stop-opacity: 0;"
     offset="1" /></linearGradient><linearGradient
   id="linearGradient3262"><stop
     id="stop3264"
     style="stop-color: rgb(0, 0, 0); stop-opacity: 1;"
     offset="0" /><stop
     id="stop3266"
     style="stop-color: rgb(0, 0, 0); stop-opacity: 0;"
     offset="1" /></linearGradient><linearGradient
   id="linearGradient3242"><stop
     id="stop3244"
     style="stop-color: rgb(40, 40, 40); stop-opacity: 1;"
     offset="0" /><stop
     id="stop3252"
     style="stop-color: rgb(128, 128, 128); stop-opacity: 1;"
     offset="0.39253417" /><stop
     id="stop3246"
     style="stop-color: rgb(217, 217, 217); stop-opacity: 1;"
     offset="1" /></linearGradient><linearGradient
   id="linearGradient3202"><stop
     id="stop3204"
     style="stop-color: rgb(43, 43, 43); stop-opacity: 1;"
     offset="0" /><stop
     id="stop3250"
     style="stop-color: rgb(130, 131, 131); stop-opacity: 1;"
     offset="0.5" /><stop
     id="stop3206"
     style="stop-color: rgb(218, 219, 219); stop-opacity: 1;"
     offset="1" /></linearGradient><linearGradient
   id="linearGradient4966"><stop
     id="stop4968"
     style="stop-color: rgb(182, 179, 216); stop-opacity: 1;"
     offset="0" /><stop
     id="stop4970"
     style="stop-color: rgb(182, 179, 216); stop-opacity: 0;"
     offset="1" /></linearGradient><linearGradient
   id="linearGradient4938"><stop
     id="stop4940"
     style="stop-color: rgb(0, 0, 0); stop-opacity: 1;"
     offset="0" /><stop
     id="stop4942"
     style="stop-color: rgb(0, 0, 0); stop-opacity: 0;"
     offset="1" /></linearGradient><linearGradient
   id="linearGradient4898"><stop
     id="stop4900"
     style="stop-color: rgb(186, 184, 219); stop-opacity: 1;"
     offset="0" /><stop
     id="stop4902"
     style="stop-color: rgb(89, 85, 169); stop-opacity: 0.991597;"
     offset="1" /></linearGradient><linearGradient
   id="linearGradient4876"><stop
     id="stop4878"
     style="stop-color: rgb(211, 210, 232); stop-opacity: 1;"
     offset="0" /><stop
     id="stop4880"
     style="stop-color: rgb(89, 85, 169); stop-opacity: 0.991597;"
     offset="1" /></linearGradient>
<radialGradient
   cx="20.951529"
   cy="-108.96888"
   r="266.76535"
   fx="20.951529"
   fy="-108.96888"
   id="radialGradient4892"
   xlink:href="#linearGradient4898"
   gradientUnits="userSpaceOnUse"
   gradientTransform="matrix(0.681744, 0, 0, 0.590536, -3.85237, -28.9353)" /><radialGradient
   cx="233.8876"
   cy="471.26172"
   r="170.49393"
   fx="233.8876"
   fy="471.26172"
   id="radialGradient4944"
   xlink:href="#linearGradient4938"
   gradientUnits="userSpaceOnUse"
   gradientTransform="matrix(1, 0, 0, 0.18541, 0, 383.885)" /><radialGradient
   cx="299.70135"
   cy="371.76376"
   r="76.696358"
   fx="299.70135"
   fy="371.76376"
   id="radialGradient4972"
   xlink:href="#linearGradient4966"
   gradientUnits="userSpaceOnUse"
   gradientTransform="matrix(1, 0, 0, 0.912162, 0, 32.6549)" /><radialGradient
   cx="289.44067"
   cy="390.45248"
   r="17.67668"
   fx="289.44067"
   fy="390.45248"
   id="radialGradient3210"
   xlink:href="#linearGradient3202"
   gradientUnits="userSpaceOnUse"
   gradientTransform="matrix(0.414705, 0.330058, -0.5059, 0.635645, 346.953, 49.4796)" /><radialGradient
   cx="283.50717"
   cy="382.14804"
   r="17.67668"
   fx="283.50717"
   fy="382.14804"
   id="radialGradient3238"
   xlink:href="#linearGradient3202"
   gradientUnits="userSpaceOnUse"
   gradientTransform="matrix(0.414705, 0.330058, -0.5059, 0.635645, 448.41, -65.3981)" /><radialGradient
   cx="418.45551"
   cy="181.18982"
   r="63.068935"
   fx="418.45551"
   fy="181.18982"
   id="radialGradient3248"
   xlink:href="#linearGradient3242"
   gradientUnits="userSpaceOnUse"
   gradientTransform="matrix(-0.065565, -0.0597218, 1.6871, -1.85217, 171.908, 540.515)" /><radialGradient
   cx="354.51709"
   cy="357.33591"
   r="33.712105"
   fx="354.51709"
   fy="357.33591"
   id="radialGradient3268"
   xlink:href="#linearGradient3262"
   gradientUnits="userSpaceOnUse"
   gradientTransform="matrix(0.405512, -0.0334401, 0.103417, 4.39887, 177.233, -1191.66)" /><radialGradient
   cx="510.58469"
   cy="223.55537"
   r="132.28336"
   fx="510.58469"
   fy="223.55537"
   id="radialGradient3280"
   xlink:href="#linearGradient3274"
   gradientUnits="userSpaceOnUse"
   gradientTransform="matrix(-0.133987, -0.114681, 0.307905, -0.359739, 444.236, 395.038)" /><radialGradient
   cx="284.4671"
   cy="-158.17821"
   r="110.2972"
   fx="284.4671"
   fy="-158.17821"
   id="radialGradient3290"
   xlink:href="#linearGradient3284"
   gradientUnits="userSpaceOnUse"
   gradientTransform="matrix(-1.24976, 1.37983, -0.0962895, -0.0729745, 674.383, -70.5907)" /><radialGradient
   cx="425.51019"
   cy="356.62274"
   r="143.34167"
   fx="425.51019"
   fy="356.62274"
   id="radialGradient3300"
   xlink:href="#linearGradient3294"
   gradientUnits="userSpaceOnUse"
   gradientTransform="matrix(-0.100817, -0.0808723, 1.07453, -1.33953, 13.8433, 784.793)" /><linearGradient
   id="linearGradient5698"><stop
     style="stop-color:#5b5b5b;stop-opacity:0.81935483;"
     offset="0"
     id="stop5700" /><stop
     style="stop-color:white;stop-opacity:0;"
     offset="1"
     id="stop5702" /></linearGradient><linearGradient
   id="linearGradient2900"><stop
     style="stop-color:#dbdbb8;stop-opacity:1;"
     offset="0"
     id="stop2902" /><stop
     style="stop-color:#a7a955;stop-opacity:0.99215686;"
     offset="1"
     id="stop2904" /></linearGradient><linearGradient
   id="linearGradient3207"><stop
     style="stop-color:#234668;stop-opacity:1;"
     offset="0"
     id="stop3209" /><stop
     style="stop-color:#0e467d;stop-opacity:1;"
     offset="1"
     id="stop3211" /></linearGradient><linearGradient
   id="linearGradient848"><stop
     id="stop849"
     offset="0.0000000"
     style="stop-color:#565248;stop-opacity:1.0000000;" /><stop
     id="stop862"
     offset="0.5"
     style="stop-color:#c2c2c2;stop-opacity:1;" /><stop
     id="stop850"
     offset="1"
     style="stop-color:#fff;stop-opacity:1;" /></linearGradient><linearGradient
   id="linearGradient3219"><stop
     id="stop3221"
     offset="0.0000000"
     style="stop-color:#565248;stop-opacity:1.0000000;" /><stop
     id="stop3223"
     offset="0.5"
     style="stop-color:#c2c2c2;stop-opacity:1;" /><stop
     id="stop3225"
     offset="1"
     style="stop-color:#fff;stop-opacity:1;" /></linearGradient><linearGradient
   id="linearGradient3228"><stop
     id="stop3230"
     offset="0.0000000"
     style="stop-color:#565248;stop-opacity:1.0000000;" /><stop
     id="stop3232"
     offset="0.5"
     style="stop-color:#c2c2c2;stop-opacity:1;" /><stop
     id="stop3234"
     offset="1"
     style="stop-color:#fff;stop-opacity:1;" /></linearGradient><linearGradient
   id="linearGradient3237"><stop
     id="stop3239"
     offset="0.0000000"
     style="stop-color:#565248;stop-opacity:1.0000000;" /><stop
     id="stop3241"
     offset="0.5"
     style="stop-color:#c2c2c2;stop-opacity:1;" /><stop
     id="stop3243"
     offset="1"
     style="stop-color:#fff;stop-opacity:1;" /></linearGradient><linearGradient
   id="linearGradient3246"><stop
     id="stop3248"
     offset="0.0000000"
     style="stop-color:#565248;stop-opacity:1.0000000;" /><stop
     id="stop3250-1"
     offset="0.5"
     style="stop-color:#c2c2c2;stop-opacity:1;" /><stop
     id="stop3252-7"
     offset="1"
     style="stop-color:#fff;stop-opacity:1;" /></linearGradient><linearGradient
   id="linearGradient897"><stop
     id="stop898"
     offset="0.00000000"
     style="stop-color:#121212;stop-opacity:1.0000000;" /><stop
     id="stop900"
     offset="1.0000000"
     style="stop-color:#3f3f3f;stop-opacity:0.00000000;" /></linearGradient><linearGradient
   id="linearGradient3259"><stop
     id="stop3261"
     offset="0.0000000"
     style="stop-color:#565248;stop-opacity:1.0000000;" /><stop
     id="stop3263"
     offset="0.5"
     style="stop-color:#c2c2c2;stop-opacity:1;" /><stop
     id="stop3265"
     offset="1"
     style="stop-color:#fff;stop-opacity:1;" /></linearGradient><linearGradient
   id="linearGradient3268"><stop
     id="stop3270"
     offset="0.0000000"
     style="stop-color:#565248;stop-opacity:1.0000000;" /><stop
     id="stop3272"
     offset="0.5"
     style="stop-color:#c2c2c2;stop-opacity:1;" /><stop
     id="stop3274"
     offset="1"
     style="stop-color:#fff;stop-opacity:1;" /></linearGradient><linearGradient
   id="linearGradient3277"><stop
     id="stop3279"
     offset="0.0000000"
     style="stop-color:#565248;stop-opacity:1.0000000;" /><stop
     id="stop3281"
     offset="0.5"
     style="stop-color:#c2c2c2;stop-opacity:1;" /><stop
     id="stop3283"
     offset="1"
     style="stop-color:#fff;stop-opacity:1;" /></linearGradient><linearGradient
   inkscape:collect="always"
   xlink:href="#linearGradient1105"
   id="linearGradient5789"
   gradientUnits="userSpaceOnUse"
   gradientTransform="matrix(1.687023,0,0,0.59276,-7.857143,6.785714)"
   x1="56.59745"
   y1="194.81442"
   x2="62.270294"
   y2="124.62844" /><linearGradient
   id="linearGradient1105"><stop
     id="stop1106"
     offset="0.00000000"
     style="stop-color:#ffffff;stop-opacity:1.0000000;" /><stop
     id="stop1107"
     offset="1.0000000"
     style="stop-color:#ffffff;stop-opacity:0.00000000;" /></linearGradient><linearGradient
   inkscape:collect="always"
   xlink:href="#linearGradient2900-0"
   id="linearGradient3254-4"
   gradientUnits="userSpaceOnUse"
   gradientTransform="matrix(1.395353,-1.1227348,1.1227348,1.395353,122.75198,-176.36979)"
   x1="-30.665005"
   y1="325.06747"
   x2="-35.799656"
   y2="279.81659" /><linearGradient
   id="linearGradient2900-0"><stop
     style="stop-color:#302d59;stop-opacity:1;"
     offset="0"
     id="stop2902-9" /><stop
     style="stop-color:#0e467d;stop-opacity:1;"
     offset="1"
     id="stop2904-4" /></linearGradient><filter
   inkscape:collect="always"
   id="filter4068"
   x="-0.21724198"
   width="1.434484"
   y="-0.26808419"
   height="1.5361684"><feGaussianBlur
     inkscape:collect="always"
     stdDeviation="20.17502"
     id="feGaussianBlur4070" /></filter><linearGradient
   inkscape:collect="always"
   xlink:href="#linearGradient2900"
   id="linearGradient4151"
   gradientUnits="userSpaceOnUse"
   gradientTransform="matrix(1.2850305,-1.0339666,0.79412513,0.98695159,162.00981,-57.627117)"
   x1="10.003294"
   y1="343.76309"
   x2="6.7183514"
   y2="321.75717" /><linearGradient
   inkscape:collect="always"
   xlink:href="#linearGradient2900"
   id="linearGradient4153"
   gradientUnits="userSpaceOnUse"
   gradientTransform="matrix(1.1261711,-0.90614452,0.90614452,1.1261711,162.00981,-57.627117)"
   x1="-30.665005"
   y1="325.06747"
   x2="-35.799656"
   y2="279.81659" /><linearGradient
   inkscape:collect="always"
   xlink:href="#linearGradient848"
   id="linearGradient4155"
   gradientUnits="userSpaceOnUse"
   gradientTransform="matrix(1.0097433,-0.81246392,1.0106269,1.2560235,162.00981,-57.627117)"
   x1="-92.295601"
   y1="290.00537"
   x2="-39.655563"
   y2="292.62564" /><linearGradient
   inkscape:collect="always"
   xlink:href="#linearGradient848"
   id="linearGradient4157"
   gradientUnits="userSpaceOnUse"
   gradientTransform="matrix(1.2960014,-1.042794,0.78740205,0.97859606,162.00981,-57.627117)"
   x1="-77.301086"
   y1="417.93759"
   x2="-202.12041"
   y2="435.79095" /><linearGradient
   inkscape:collect="always"
   xlink:href="#linearGradient848"
   id="linearGradient4159"
   gradientUnits="userSpaceOnUse"
   gradientTransform="matrix(1.3538191,-1.0893156,0.75377426,0.93680284,162.00981,-57.627117)"
   x1="-80.08638"
   y1="355.24506"
   x2="-122.42992"
   y2="483.12811" /><linearGradient
   inkscape:collect="always"
   xlink:href="#linearGradient848"
   id="linearGradient4161"
   gradientUnits="userSpaceOnUse"
   gradientTransform="matrix(1.731271,-1.3930225,0.58943553,0.73256004,162.00981,-57.627117)"
   x1="-29.340315"
   y1="605.10358"
   x2="-76.779144"
   y2="538.38483" /><linearGradient
   inkscape:collect="always"
   xlink:href="#linearGradient848"
   id="linearGradient4163"
   gradientUnits="userSpaceOnUse"
   gradientTransform="matrix(1.087874,-0.87532978,0.93804398,1.1658162,162.00981,-57.627117)"
   x1="-22.038263"
   y1="299.23877"
   x2="-70.308418"
   y2="332.96103" /><linearGradient
   inkscape:collect="always"
   xlink:href="#linearGradient897"
   id="linearGradient4165"
   gradientUnits="userSpaceOnUse"
   gradientTransform="matrix(1.9191411,-1.5441874,0.53173463,0.66084842,162.00981,-57.627117)"
   x1="-71.230118"
   y1="554.61108"
   x2="-65.325592"
   y2="560.9137" /><linearGradient
   inkscape:collect="always"
   xlink:href="#linearGradient848"
   id="linearGradient4167"
   gradientUnits="userSpaceOnUse"
   gradientTransform="matrix(1.5861939,-1.27629,0.64334706,0.79956217,162.00981,-57.627117)"
   x1="-23.114986"
   y1="444.43933"
   x2="-11.89858"
   y2="462.71921" /><linearGradient
   inkscape:collect="always"
   xlink:href="#linearGradient848"
   id="linearGradient4169"
   gradientUnits="userSpaceOnUse"
   gradientTransform="matrix(1.6458289,-1.3242738,0.62003677,0.77059176,162.00981,-57.627117)"
   x1="-55.499619"
   y1="495.63669"
   x2="7.9269457"
   y2="475.02667" /><linearGradient
   inkscape:collect="always"
   xlink:href="#linearGradient848"
   id="linearGradient4171"
   gradientUnits="userSpaceOnUse"
   gradientTransform="matrix(1.4306941,-1.151171,0.71327175,0.88646572,162.00981,-57.627117)"
   x1="-0.52263796"
   y1="381.94522"
   x2="15.628285"
   y2="374.65659" /><linearGradient
   inkscape:collect="always"
   xlink:href="#linearGradient1105"
   id="linearGradient4173"
   gradientUnits="userSpaceOnUse"
   gradientTransform="matrix(3.2441917,-2.6103552,0.91718611,1.1398938,63.805474,324.09667)"
   x1="56.59745"
   y1="194.81442"
   x2="62.270294"
   y2="124.62844" /><linearGradient
   inkscape:collect="always"
   xlink:href="#linearGradient1105"
   id="linearGradient4176"
   gradientUnits="userSpaceOnUse"
   gradientTransform="matrix(3.3228241,-2.7787693,0.93941678,1.2134371,72.448264,317.59775)"
   x1="56.59745"
   y1="194.81442"
   x2="62.270294"
   y2="124.62844" /><linearGradient
   inkscape:collect="always"
   xlink:href="#linearGradient848"
   id="linearGradient4180"
   gradientUnits="userSpaceOnUse"
   gradientTransform="matrix(1.4653711,-1.2254419,0.73055996,0.94365845,173.03287,-88.753977)"
   x1="-0.52263796"
   y1="381.94522"
   x2="15.628285"
   y2="374.65659" /><linearGradient
   inkscape:collect="always"
   xlink:href="#linearGradient848"
   id="linearGradient4183"
   gradientUnits="userSpaceOnUse"
   gradientTransform="matrix(1.6857203,-1.4097129,0.63506516,0.82030857,173.03287,-88.753977)"
   x1="-55.499619"
   y1="495.63669"
   x2="7.9269457"
   y2="475.02667" /><linearGradient
   inkscape:collect="always"
   xlink:href="#linearGradient848"
   id="linearGradient4186"
   gradientUnits="userSpaceOnUse"
   gradientTransform="matrix(1.6246399,-1.3586333,0.65894044,0.85114808,173.03287,-88.753977)"
   x1="-23.114986"
   y1="444.43933"
   x2="-11.89858"
   y2="462.71921" /><linearGradient
   inkscape:collect="always"
   xlink:href="#linearGradient897"
   id="linearGradient4189"
   gradientUnits="userSpaceOnUse"
   gradientTransform="matrix(1.9656571,-1.6438148,0.54462276,0.70348484,173.03287,-88.753977)"
   x1="-71.230118"
   y1="554.61108"
   x2="-65.325592"
   y2="560.9137" /><linearGradient
   inkscape:collect="always"
   xlink:href="#linearGradient848"
   id="linearGradient4192"
   gradientUnits="userSpaceOnUse"
   gradientTransform="matrix(1.1142418,-0.93180404,0.9607802,1.241032,173.03287,-88.753977)"
   x1="-22.038263"
   y1="299.23877"
   x2="-70.308418"
   y2="332.96103" /><linearGradient
   inkscape:collect="always"
   xlink:href="#linearGradient848"
   id="linearGradient4197"
   gradientUnits="userSpaceOnUse"
   gradientTransform="matrix(1.7732334,-1.4828971,0.60372221,0.77982313,173.03287,-88.753977)"
   x1="-29.340315"
   y1="605.10358"
   x2="-76.779144"
   y2="538.38483" /><linearGradient
   inkscape:collect="always"
   xlink:href="#linearGradient848"
   id="linearGradient4201"
   gradientUnits="userSpaceOnUse"
   gradientTransform="matrix(1.3866328,-1.1595957,0.77204417,0.9972432,173.03287,-88.753977)"
   x1="-80.08638"
   y1="355.24506"
   x2="-122.42992"
   y2="483.12811" /><linearGradient
   inkscape:collect="always"
   xlink:href="#linearGradient848"
   id="linearGradient4204"
   gradientUnits="userSpaceOnUse"
   gradientTransform="matrix(1.3274138,-1.1100727,0.80648702,1.0417328,173.03287,-88.753977)"
   x1="-77.301086"
   y1="417.93759"
   x2="-202.12041"
   y2="435.79095" /><linearGradient
   inkscape:collect="always"
   xlink:href="#linearGradient848"
   id="linearGradient4207"
   gradientUnits="userSpaceOnUse"
   gradientTransform="matrix(1.0342174,-0.86488222,1.0351224,1.3370592,173.03287,-88.753977)"
   x1="-92.295601"
   y1="290.00537"
   x2="-39.655563"
   y2="292.62564" /><linearGradient
   inkscape:collect="always"
   xlink:href="#linearGradient2900"
   id="linearGradient4210"
   gradientUnits="userSpaceOnUse"
   gradientTransform="matrix(1.1534671,-0.96460688,0.92810756,1.1988291,173.03287,-88.753977)"
   x1="-30.665005"
   y1="325.06747"
   x2="-35.799656"
   y2="279.81659" /><linearGradient
   inkscape:collect="always"
   xlink:href="#linearGradient2900"
   id="linearGradient4213"
   gradientUnits="userSpaceOnUse"
   gradientTransform="matrix(1.3161769,-1.1006757,0.81337306,1.0506274,173.03287,-88.753977)"
   x1="10.003294"
   y1="343.76309"
   x2="6.7183514"
   y2="321.75717" /></defs>
<path
   d="M 404.38153,471.26172 C 404.40061,488.72268 328.06229,502.87946 233.8876,502.87946 C 139.71291,502.87946 63.374595,488.72268 63.393677,471.26172 C 63.374595,453.80076 139.71291,439.64398 233.8876,439.64398 C 328.06229,439.64398 404.40061,453.80076 404.38153,471.26172 z"
   transform="matrix(1.34346, 0, 0, 1.39344, -81.8869, -193.706)"
   id="path4912"
   style="opacity: 1; fill: url(&quot;#radialGradient4944&quot;) rgb(0, 0, 0); fill-opacity: 1; stroke: rgb(123, 0, 0); stroke-width: 0pt; stroke-miterlimit: 4; stroke-dasharray: none; stroke-opacity: 1;" /><path
   d="M 277.19656,7.985198 C 277.19656,165.02971 157.76164,292.33945 10.43121,292.33945 C -136.89922,292.33945 -256.33414,165.02971 -256.33414,7.985198 C -256.33414,-149.05932 -136.89922,-276.36905 10.43121,-276.36905 C 157.76164,-276.36905 277.19656,-149.05932 277.19656,7.985198 z"
   transform="matrix(0.885503, 0, 0, 0.839217, 227.802, 232.649)"
   id="path4864"
   style="opacity: 1; fill: url(&quot;#radialGradient4892&quot;) rgb(0, 0, 0); fill-opacity: 1; stroke: rgb(123, 0, 0); stroke-width: 0pt; stroke-miterlimit: 4; stroke-dasharray: none; stroke-opacity: 1;" /><path
   d="M 376.39771,371.76376 C 376.40956,410.40897 342.06796,441.74284 299.70135,441.74284 C 257.33475,441.74284 222.99315,410.40897 223.005,371.76376 C 222.99315,333.11855 257.33475,301.78468 299.70135,301.78468 C 342.06796,301.78468 376.40956,333.11855 376.39771,371.76376 L 376.39771,371.76376 z"
   id="path4946"
   style="opacity: 1; fill: url(&quot;#radialGradient4972&quot;) rgb(0, 0, 0); fill-opacity: 1; stroke: rgb(123, 0, 0); stroke-width: 0pt; stroke-miterlimit: 4; stroke-dasharray: none; stroke-opacity: 1;"
   transform="matrix(1.45946, 0, 0, 1, -195.741, -13.4737)" /><path
   d="M 120.52728,395.60181 C 120.52728,395.60181 141.53508,401.7017 169.49894,405.18885 C 180.82361,406.60106 223.91189,411.53703 256.94833,411.40748 C 256.94833,411.40748 297.18385,411.45315 319.39367,408.29817 C 342.63265,404.99699 355.79853,400.78399 363.12576,392.37646 C 363.31663,390.37182 366.66239,383.83735 357.62922,377.53581 C 334.53496,361.42524 304.67924,357.01539 246.68812,343.24332 C 182.56112,327.12062 163.39684,311.68183 153.82282,300.50869 C 144.74597,289.31078 155.52664,266.05486 207.19934,254.64634 C 233.36175,248.27975 330.80211,247.10994 330.80211,247.10994 C 302.84706,224.91525 250.36452,185.17927 239.63685,176.72892 C 230.22819,169.31758 215.0665,157.94409 213.43669,147.7805 C 211.23808,137.88672 226.81161,133.12305 235.05641,132.5734 C 261.62302,130.74122 297.90017,133.85593 330.14653,140.26856 C 346.35535,143.49191 349.20119,143.01683 349.20119,143.01683 C 372.28666,144.11614 390.24202,132.02376 389.32593,106.55645 C 389.14271,80.722724 363.3136,60.007847 334.72698,59.103006 C 307.8068,58.250912 241.46904,62.950582 241.46904,62.950582 C 318.78702,78.890545 331.42676,82.958326 335.45985,92.265455 C 337.84168,97.761995 331.48115,103.22697 310.17577,102.15922 C 286.98088,100.99677 239.45364,95.38016 239.45364,95.38016 C 194.19881,88.417878 162.68532,81.822031 148.94397,99.777391 C 139.96658,111.50786 150.2265,125.79434 154.25729,134.22236 C 172.21266,165.55264 203.26114,187.04759 222.96403,202.19623 C 230.37744,207.89605 253.01177,220.51802 253.01177,220.51802 C 182.65608,201.28013 126.59139,212.08999 91.047104,230.77822 C 50.1895,254.96299 57.178586,295.77502 122.01094,333.92994 C 160.30349,356.46574 179.36948,367.29179 242.06631,374.98916 C 278.71351,380.83258 284.17422,383.22354 283.8957,386.27387 C 283.50356,390.56845 240.52009,392.19591 228.70541,393.01072 C 198.64873,395.08359 120.91594,395.60181 120.52728,395.60181 z"
   id="path4839"
   style="fill: rgb(255, 255, 255); fill-opacity: 1; fill-rule: evenodd; stroke: rgb(0, 0, 0); stroke-width: 0pt; stroke-linecap: butt; stroke-linejoin: miter; stroke-miterlimit: 4; stroke-dasharray: none; stroke-opacity: 1;" /><rect
   width="512"
   height="512"
   x="0.171"
   y="0.20100001"
   id="rect4772"
   style="fill: none; display: none;" />



<g
   id="g4788"
   style="display: none;">
	<g
   id="g4790"
   style="display: inline;">
	</g>
</g>


<g
   id="g4806"
   style="display: none;">
	<g
   id="g4808"
   style="display: inline;">
		<path
   d="M 349.098,256.651 C 348.833,256.397 386.735,284.256 388.519,281.663 C 394.881,272.411 470.565,188.526 473.303,165.427 C 473.545,163.424 472.787,161.331 472.787,161.331 C 472.787,161.331 471.597,161.187 466.462,157.017 C 463.77,154.825 460.979,152.436 460.979,152.436 C 444.925,153.434 403.094,193.995 349.917,256.004"
   id="path4810"
   style="fill: rgb(5, 5, 5); display: none;" />
	</g>
</g>



<g
   id="g4796"
   style="stroke: none;">

	<g
   id="g4800"
   style="stroke: none;">

	</g>
</g><g
   id="g4774">

</g><path
   style="opacity:0.52083333;fill:#000000;fill-opacity:1;fill-rule:evenodd;stroke-width:1pt;filter:url(#filter4068)"
   sodipodi:nodetypes="czzzzzzzzc"
   id="path832-8"
   d="m 333.10198,429.24145 128.73238,30.44057 c 7.63088,1.80445 17.17848,-4.43139 20.50271,-11.53319 l 59.63645,-127.40526 c 6.28149,-13.41953 -1.80773,-41.20336 -16.62464,-41.22486 l -94.42184,-0.13704 c -13.00512,-0.0189 -25.23333,10.0755 -33.36309,20.22638 l -74.67846,93.24401 c -3.90976,4.88175 0.0323,12.85371 2.51608,18.59377 l 7.70041,17.79562 z"
   inkscape:connector-curvature="0"
   transform="matrix(1.1324418,0,0,1.1279228,-124.13028,-27.887961)" /><path
   style="fill:url(#linearGradient4213);fill-opacity:1;fill-rule:evenodd;stroke-width:1pt"
   sodipodi:nodetypes="cccccccc"
   id="path839"
   d="m 420.36196,267.6688 23.7814,-30.08239 29.61246,-4.15137 c 0,0 20.92365,13.77643 15.05002,26.50691 -5.87364,12.73047 -9.53823,11.5304 -9.53823,11.5304 l -8.94171,16.71775 -50.03987,-10.75078 0.076,-9.77052 z"
   inkscape:connector-curvature="0" /><path
   style="fill:url(#linearGradient4210);fill-opacity:1;fill-rule:evenodd;stroke-width:1pt"
   sodipodi:nodetypes="czzzzzzzzc"
   id="path832"
   d="m 326.99847,398.09927 106.41649,26.15328 c 6.30806,1.5503 14.20056,-3.80727 16.94854,-9.90884 l 49.29841,-109.46128 c 5.19259,-11.5295 -1.49436,-35.40021 -13.74275,-35.41868 l -78.05371,-0.11773 c -10.75066,-0.0163 -20.85909,8.65644 -27.57956,17.37765 l -61.73287,80.11136 c -3.232,4.1942 0.0267,11.04337 2.07991,15.975 l 6.36554,15.28924 z"
   inkscape:connector-curvature="0" /><path
   style="fill:url(#linearGradient4207);fill-opacity:1;fill-rule:evenodd;stroke:#000000;stroke-width:1.50932713pt;stroke-opacity:0.22314052"
   sodipodi:nodetypes="czzcccc"
   id="path906"
   d="m 326.93431,395.22917 107.9551,29.38995 c 6.27046,1.7071 12.0279,-6.32695 14.59733,-10.07495 2.58973,-3.94264 0.68466,-39.92837 -28.11779,-38.23484 l -102.4414,-9.81308 c -4.07194,-0.39006 -1.22563,9.46163 0.50041,13.60731 l 7.50635,15.12561 z"
   inkscape:connector-curvature="0" /><path
   style="fill:url(#linearGradient4204);fill-opacity:1;fill-rule:evenodd;stroke-width:1pt"
   sodipodi:nodetypes="czzzzzzzz"
   id="path835"
   d="m 378.72961,498.40629 53.01824,-87.48053 c 2.27577,-3.75501 -0.0869,-23.57737 -4.32302,-24.13469 l -100.74458,-13.2541 c -2.78597,-0.36652 -59.36417,76.80912 -58.45744,79.57142 l 5.69563,17.35114 c 1.30772,3.98384 4.83104,7.64953 8.73211,8.78066 l 91.03837,26.39703 c 2.75848,0.79983 3.51435,-4.71246 5.04069,-7.23093 z"
   inkscape:connector-curvature="0" /><path
   style="fill:url(#linearGradient4201);fill-opacity:1;fill-rule:evenodd;stroke-width:1pt"
   sodipodi:nodetypes="ccccccczz"
   id="path830"
   d="m 267.65931,451.77915 59.85892,-76.85939 -2.26663,-7.34462 97.30729,11.73693 5.93123,8.54466 -54.4277,91.04895 -7.21018,-7.1807 -92.54136,-21.95443 c -2.25097,-0.53403 -8.10422,3.87382 -6.65157,2.0086 z"
   inkscape:connector-curvature="0" /><path
   style="fill:#0f0f0f;fill-rule:evenodd;stroke-width:1pt"
   sodipodi:nodetypes="czzzzzzzz"
   id="path826"
   d="m 378.64852,499.18492 -3.46203,-18.21382 c -0.82756,-4.35375 -3.85962,-9.42163 -8.03036,-10.37274 l -91.61187,-20.89148 c -2.74295,-0.62552 -8.3093,1.41784 -7.40254,4.18014 l 5.69563,17.35113 c 1.30772,3.98384 4.83104,7.64953 8.73212,8.78066 l 91.03837,26.39703 c 2.75847,0.79983 5.5957,-4.31092 5.04068,-7.23092 z"
   inkscape:connector-curvature="0" /><path
   style="fill:url(#linearGradient4197);fill-opacity:1;fill-rule:evenodd;stroke-width:1pt"
   sodipodi:nodetypes="ccccc"
   id="path827"
   d="m 369.96302,469.4968 53.89082,-88.46767 c 1.17753,0.27174 7.41197,1.86405 3.27035,8.88146 -4.14164,7.01737 -50.19895,84.88504 -51.40176,86.14223 -1.69042,-4.38757 -3.16652,-5.68748 -5.75941,-6.55602 z"
   inkscape:connector-curvature="0" /><path
   style="fill:#ffffff;fill-opacity:0.12578616;fill-rule:evenodd;stroke-width:3.5;stroke-linecap:round;stroke-linejoin:round;stroke-opacity:0.22314052"
   sodipodi:nodetypes="ccccc"
   id="path828"
   d="m 360.2712,424.29343 20.57044,6.25329 9.78155,-13.86624 -23.00956,-4.92424 -7.34243,12.53719 z"
   inkscape:connector-curvature="0" /><path
   style="fill:#ffffff;fill-opacity:0.12578616;fill-rule:evenodd;stroke-width:3.5;stroke-linecap:round;stroke-linejoin:round;stroke-opacity:0.22314052"
   sodipodi:nodetypes="ccccc"
   id="path829"
   d="m 325.89179,419.63729 9.28533,-12.74045 -18.90034,-4.09602 -7.20973,11.00468 16.82474,5.83179 z"
   inkscape:connector-curvature="0" /><path
   style="fill:url(#linearGradient4192);fill-opacity:1;fill-rule:evenodd;stroke-width:1pt"
   sodipodi:nodetypes="czzzzcz"
   id="path833"
   d="m 421.91534,378.24855 c 34.38189,4.01166 25.48685,41.61046 28.13864,35.46308 l 11.99057,-27.79677 c 5.0108,-11.61606 -1.91628,-37.95871 -14.08635,-39.39599 l -106.93727,-12.62937 -27.06308,32.99921 107.95749,11.35984 z"
   inkscape:connector-curvature="0" /><path
   style="fill:url(#linearGradient4189);fill-opacity:1;fill-rule:evenodd;stroke-width:1pt"
   sodipodi:nodetypes="ccccc"
   id="path836"
   d="m 312.47633,457.65754 8.49343,2.76189 54.231,-84.86073 -5.16287,-1.36867 -57.56156,83.46751 z"
   inkscape:connector-curvature="0" /><path
   style="fill:url(#linearGradient4186);fill-opacity:1;fill-rule:evenodd;stroke-width:1pt"
   id="path837"
   d="m 433.3137,356.10261 c 0,0 21.22792,-58.2665 30.13651,-56.47637 8.90859,1.79012 -22.8788,63.20099 -28.28501,64.16814 -5.4062,0.96713 -1.8515,-7.69177 -1.8515,-7.69177 z"
   inkscape:connector-curvature="0" /><path
   style="fill:url(#linearGradient4183);fill-opacity:1;fill-rule:evenodd;stroke-width:1pt"
   id="path838"
   d="m 479.78303,277.43831 c 1.74161,-2.16722 9.13272,-7.63739 7.2289,-3.91297 -1.90381,3.72444 -37.64185,81.23305 -40.6288,84.44174 -2.98696,3.20868 0.2337,-5.88168 0.2337,-5.88168 l 33.1662,-74.64709 z"
   inkscape:connector-curvature="0" /><path
   style="fill:url(#linearGradient4180);fill-opacity:1;fill-rule:evenodd;stroke-width:1pt"
   id="path840"
   d="m 466.70834,242.88251 c 0,0 2.55264,-9.95323 5.14366,-5.72305 2.59106,4.23019 -9.57132,30.0383 -12.47718,32.46838 -2.90587,2.43008 7.33352,-26.74533 7.33352,-26.74533 z"
   inkscape:connector-curvature="0" /><path
   style="fill:#b7b7b7;fill-rule:evenodd;stroke:#000000;stroke-width:1.50932713pt"
   sodipodi:nodetypes="cczzc"
   id="path923"
   d="m 272.40097,462.30608 c 0,0 -2.10441,-8.90181 4.22275,-7.796 6.32713,1.1058 84.38351,17.56919 88.75671,19.24287 4.54019,1.88939 4.72161,7.42391 5.73326,12.26412 1.01164,4.84018 -98.71272,-23.71099 -98.71272,-23.71099 z"
   inkscape:connector-curvature="0" /><path
   style="fill:url(#linearGradient4176);fill-opacity:1;fill-rule:evenodd;stroke:none"
   sodipodi:nodetypes="czcczzc"
   id="path1081"
   d="m 347.50609,332.06188 c 0,0 39.30175,15.57178 56.00058,-3.60937 16.69885,-19.18116 34.58817,-49.79078 49.42633,-47.29528 14.83816,2.4955 23.35261,-10.58653 23.35261,-10.58653 l -66.82656,0.73945 c -11.64005,0.12879 -22.51563,9.49878 -29.786,18.94739 l -32.16696,41.80434 z"
   inkscape:connector-curvature="0" /></svg>