<?xml version="1.0" encoding="UTF-8" standalone="no"?>
<!-- Created with Inkscape (http://www.inkscape.org/) -->

<svg
   xmlns:dc="http://purl.org/dc/elements/1.1/"
   xmlns:cc="http://creativecommons.org/ns#"
   xmlns:rdf="http://www.w3.org/1999/02/22-rdf-syntax-ns#"
   xmlns:svg="http://www.w3.org/2000/svg"
   xmlns="http://www.w3.org/2000/svg"
   xmlns:xlink="http://www.w3.org/1999/xlink"
   version="1.0"
   width="48"
   height="48"
   viewBox="0.171 0.201 512 512"
   id="svg4768"
   xml:space="preserve"><metadata
   id="metadata3053"><rdf:RDF><cc:Work
       rdf:about=""><dc:format>image/svg+xml</dc:format><dc:type
         rdf:resource="http://purl.org/dc/dcmitype/StillImage" /><dc:title></dc:title></cc:Work></rdf:RDF></metadata>
<defs
   id="defs4770"><linearGradient
   id="linearGradient3294"><stop
     id="stop3296"
     style="stop-color:#6376e6;stop-opacity:1"
     offset="0" /><stop
     id="stop3302"
     style="stop-color:#222989;stop-opacity:1"
     offset="0.50094414" /><stop
     id="stop3298"
     style="stop-color:#00003d;stop-opacity:1"
     offset="1" /></linearGradient><linearGradient
   id="linearGradient3284"><stop
     id="stop3286"
     style="stop-color:#000000;stop-opacity:1"
     offset="0" /><stop
     id="stop3292"
     style="stop-color:#000000;stop-opacity:0.49803901"
     offset="0.84845906" /><stop
     id="stop3288"
     style="stop-color:#000000;stop-opacity:0"
     offset="1" /></linearGradient><linearGradient
   id="linearGradient3274"><stop
     id="stop3276"
     style="stop-color:#000000;stop-opacity:1"
     offset="0" /><stop
     id="stop3278"
     style="stop-color:#000000;stop-opacity:0"
     offset="1" /></linearGradient><linearGradient
   id="linearGradient3262"><stop
     id="stop3264"
     style="stop-color:#000000;stop-opacity:1"
     offset="0" /><stop
     id="stop3266"
     style="stop-color:#000000;stop-opacity:0"
     offset="1" /></linearGradient><linearGradient
   id="linearGradient3242"><stop
     id="stop3244"
     style="stop-color:#282828;stop-opacity:1"
     offset="0" /><stop
     id="stop3252"
     style="stop-color:#808080;stop-opacity:1"
     offset="0.39253417" /><stop
     id="stop3246"
     style="stop-color:#d9d9d9;stop-opacity:1"
     offset="1" /></linearGradient><linearGradient
   id="linearGradient3202"><stop
     id="stop3204"
     style="stop-color:#2b2b2b;stop-opacity:1"
     offset="0" /><stop
     id="stop3250"
     style="stop-color:#828383;stop-opacity:1"
     offset="0.5" /><stop
     id="stop3206"
     style="stop-color:#dadbdb;stop-opacity:1"
     offset="1" /></linearGradient><linearGradient
   id="linearGradient4966"><stop
     id="stop4968"
     style="stop-color:#b6b3d8;stop-opacity:1"
     offset="0" /><stop
     id="stop4970"
     style="stop-color:#b6b3d8;stop-opacity:0"
     offset="1" /></linearGradient><linearGradient
   id="linearGradient4938"><stop
     id="stop4940"
     style="stop-color:#000000;stop-opacity:1"
     offset="0" /><stop
     id="stop4942"
     style="stop-color:#000000;stop-opacity:0"
     offset="1" /></linearGradient><linearGradient
   id="linearGradient4898"><stop
     id="stop4900"
     style="stop-color:#bab8db;stop-opacity:1"
     offset="0" /><stop
     id="stop4902"
     style="stop-color:#5955a9;stop-opacity:0.991597"
     offset="1" /></linearGradient><linearGradient
   id="linearGradient4876"><stop
     id="stop4878"
     style="stop-color:#d3d2e8;stop-opacity:1"
     offset="0" /><stop
     id="stop4880"
     style="stop-color:#5955a9;stop-opacity:0.991597"
     offset="1" /></linearGradient>
<radialGradient
   cx="20.951529"
   cy="-108.96888"
   r="266.76535"
   fx="20.951529"
   fy="-108.96888"
   id="radialGradient4892"
   xlink:href="#linearGradient4898"
   gradientUnits="userSpaceOnUse"
   gradientTransform="matrix(0.681744,0,0,0.590536,-3.85237,-28.9353)" /><radialGradient
   cx="233.8876"
   cy="471.26172"
   r="170.49393"
   fx="233.8876"
   fy="471.26172"
   id="radialGradient4944"
   xlink:href="#linearGradient4938"
   gradientUnits="userSpaceOnUse"
   gradientTransform="matrix(1,0,0,0.18541,0,383.885)" /><radialGradient
   cx="299.70135"
   cy="371.76376"
   r="76.696358"
   fx="299.70135"
   fy="371.76376"
   id="radialGradient4972"
   xlink:href="#linearGradient4966"
   gradientUnits="userSpaceOnUse"
   gradientTransform="matrix(1,0,0,0.912162,0,32.6549)" /><radialGradient
   cx="289.44067"
   cy="390.45248"
   r="17.67668"
   fx="289.44067"
   fy="390.45248"
   id="radialGradient3210"
   xlink:href="#linearGradient3202"
   gradientUnits="userSpaceOnUse"
   gradientTransform="matrix(0.414705,0.330058,-0.5059,0.635645,346.953,49.4796)" /><radialGradient
   cx="283.50717"
   cy="382.14804"
   r="17.67668"
   fx="283.50717"
   fy="382.14804"
   id="radialGradient3238"
   xlink:href="#linearGradient3202"
   gradientUnits="userSpaceOnUse"
   gradientTransform="matrix(0.414705,0.330058,-0.5059,0.635645,448.41,-65.3981)" /><radialGradient
   cx="418.45551"
   cy="181.18982"
   r="63.068935"
   fx="418.45551"
   fy="181.18982"
   id="radialGradient3248"
   xlink:href="#linearGradient3242"
   gradientUnits="userSpaceOnUse"
   gradientTransform="matrix(-0.065565,-0.0597218,1.6871,-1.85217,171.908,540.515)" /><radialGradient
   cx="354.51709"
   cy="357.33591"
   r="33.712105"
   fx="354.51709"
   fy="357.33591"
   id="radialGradient3268"
   xlink:href="#linearGradient3262"
   gradientUnits="userSpaceOnUse"
   gradientTransform="matrix(0.405512,-0.0334401,0.103417,4.39887,177.233,-1191.66)" /><radialGradient
   cx="510.58469"
   cy="223.55537"
   r="132.28336"
   fx="510.58469"
   fy="223.55537"
   id="radialGradient3280"
   xlink:href="#linearGradient3274"
   gradientUnits="userSpaceOnUse"
   gradientTransform="matrix(-0.133987,-0.114681,0.307905,-0.359739,444.236,395.038)" /><radialGradient
   cx="284.4671"
   cy="-158.17821"
   r="110.2972"
   fx="284.4671"
   fy="-158.17821"
   id="radialGradient3290"
   xlink:href="#linearGradient3284"
   gradientUnits="userSpaceOnUse"
   gradientTransform="matrix(-1.24976,1.37983,-0.0962895,-0.0729745,674.383,-70.5907)" /><radialGradient
   cx="425.51019"
   cy="356.62274"
   r="143.34167"
   fx="425.51019"
   fy="356.62274"
   id="radialGradient3300"
   xlink:href="#linearGradient3294"
   gradientUnits="userSpaceOnUse"
   gradientTransform="matrix(-0.100817,-0.0808723,1.07453,-1.33953,13.8433,784.793)" /><linearGradient
   id="linearGradient5698"><stop
     id="stop5700"
     style="stop-color:#5b5b5b;stop-opacity:0.81935483"
     offset="0" /><stop
     id="stop5702"
     style="stop-color:#ffffff;stop-opacity:0"
     offset="1" /></linearGradient><linearGradient
   id="linearGradient2900"><stop
     id="stop2902"
     style="stop-color:#dbdbb8;stop-opacity:1"
     offset="0" /><stop
     id="stop2904"
     style="stop-color:#a7a955;stop-opacity:0.99215686"
     offset="1" /></linearGradient><linearGradient
   id="linearGradient3207"><stop
     id="stop3209"
     style="stop-color:#234668;stop-opacity:1"
     offset="0" /><stop
     id="stop3211"
     style="stop-color:#0e467d;stop-opacity:1"
     offset="1" /></linearGradient><linearGradient
   id="linearGradient848"><stop
     id="stop849"
     style="stop-color:#565248;stop-opacity:1"
     offset="0" /><stop
     id="stop862"
     style="stop-color:#c2c2c2;stop-opacity:1"
     offset="0.5" /><stop
     id="stop850"
     style="stop-color:#ffffff;stop-opacity:1"
     offset="1" /></linearGradient><linearGradient
   id="linearGradient3219"><stop
     id="stop3221"
     style="stop-color:#565248;stop-opacity:1"
     offset="0" /><stop
     id="stop3223"
     style="stop-color:#c2c2c2;stop-opacity:1"
     offset="0.5" /><stop
     id="stop3225"
     style="stop-color:#ffffff;stop-opacity:1"
     offset="1" /></linearGradient><linearGradient
   id="linearGradient3228"><stop
     id="stop3230"
     style="stop-color:#565248;stop-opacity:1"
     offset="0" /><stop
     id="stop3232"
     style="stop-color:#c2c2c2;stop-opacity:1"
     offset="0.5" /><stop
     id="stop3234"
     style="stop-color:#ffffff;stop-opacity:1"
     offset="1" /></linearGradient><linearGradient
   id="linearGradient3237"><stop
     id="stop3239"
     style="stop-color:#565248;stop-opacity:1"
     offset="0" /><stop
     id="stop3241"
     style="stop-color:#c2c2c2;stop-opacity:1"
     offset="0.5" /><stop
     id="stop3243"
     style="stop-color:#ffffff;stop-opacity:1"
     offset="1" /></linearGradient><linearGradient
   id="linearGradient3246"><stop
     id="stop3248"
     style="stop-color:#565248;stop-opacity:1"
     offset="0" /><stop
     id="stop3250-1"
     style="stop-color:#c2c2c2;stop-opacity:1"
     offset="0.5" /><stop
     id="stop3252-7"
     style="stop-color:#ffffff;stop-opacity:1"
     offset="1" /></linearGradient><linearGradient
   id="linearGradient897"><stop
     id="stop898"
     style="stop-color:#121212;stop-opacity:1"
     offset="0" /><stop
     id="stop900"
     style="stop-color:#3f3f3f;stop-opacity:0"
     offset="1" /></linearGradient><linearGradient
   id="linearGradient3259"><stop
     id="stop3261"
     style="stop-color:#565248;stop-opacity:1"
     offset="0" /><stop
     id="stop3263"
     style="stop-color:#c2c2c2;stop-opacity:1"
     offset="0.5" /><stop
     id="stop3265"
     style="stop-color:#ffffff;stop-opacity:1"
     offset="1" /></linearGradient><linearGradient
   id="linearGradient3268"><stop
     id="stop3270"
     style="stop-color:#565248;stop-opacity:1"
     offset="0" /><stop
     id="stop3272"
     style="stop-color:#c2c2c2;stop-opacity:1"
     offset="0.5" /><stop
     id="stop3274"
     style="stop-color:#ffffff;stop-opacity:1"
     offset="1" /></linearGradient><linearGradient
   id="linearGradient3277"><stop
     id="stop3279"
     style="stop-color:#565248;stop-opacity:1"
     offset="0" /><stop
     id="stop3281"
     style="stop-color:#c2c2c2;stop-opacity:1"
     offset="0.5" /><stop
     id="stop3283"
     style="stop-color:#ffffff;stop-opacity:1"
     offset="1" /></linearGradient><linearGradient
   x1="56.59745"
   y1="194.81442"
   x2="62.270294"
   y2="124.62844"
   id="linearGradient5789"
   xlink:href="#linearGradient1105"
   gradientUnits="userSpaceOnUse"
   gradientTransform="matrix(1.687023,0,0,0.59276,-7.857143,6.785714)" /><linearGradient
   id="linearGradient1105"><stop
     id="stop1106"
     style="stop-color:#ffffff;stop-opacity:1"
     offset="0" /><stop
     id="stop1107"
     style="stop-color:#ffffff;stop-opacity:0"
     offset="1" /></linearGradient><linearGradient
   x1="-30.665005"
   y1="325.06747"
   x2="-35.799656"
   y2="279.81659"
   id="linearGradient3254-4"
   xlink:href="#linearGradient2900-0"
   gradientUnits="userSpaceOnUse"
   gradientTransform="matrix(1.395353,-1.1227348,1.1227348,1.395353,122.75198,-176.36979)" /><linearGradient
   id="linearGradient2900-0"><stop
     id="stop2902-9"
     style="stop-color:#302d59;stop-opacity:1"
     offset="0" /><stop
     id="stop2904-4"
     style="stop-color:#0e467d;stop-opacity:1"
     offset="1" /></linearGradient><filter
   x="-0.21724197"
   y="-0.2680842"
   width="1.434484"
   height="1.5361685"
   color-interpolation-filters="sRGB"
   id="filter4068"><feGaussianBlur
     id="feGaussianBlur4070"
     stdDeviation="20.17502" /></filter><linearGradient
   x1="10.003294"
   y1="343.76309"
   x2="6.7183514"
   y2="321.75717"
   id="linearGradient4151"
   xlink:href="#linearGradient2900"
   gradientUnits="userSpaceOnUse"
   gradientTransform="matrix(1.2850305,-1.0339666,0.79412513,0.98695159,162.00981,-57.627117)" /><linearGradient
   x1="-30.665005"
   y1="325.06747"
   x2="-35.799656"
   y2="279.81659"
   id="linearGradient4153"
   xlink:href="#linearGradient2900"
   gradientUnits="userSpaceOnUse"
   gradientTransform="matrix(1.1261711,-0.90614452,0.90614452,1.1261711,162.00981,-57.627117)" /><linearGradient
   x1="-92.295601"
   y1="290.00537"
   x2="-39.655563"
   y2="292.62564"
   id="linearGradient4155"
   xlink:href="#linearGradient848"
   gradientUnits="userSpaceOnUse"
   gradientTransform="matrix(1.0097433,-0.81246392,1.0106269,1.2560235,162.00981,-57.627117)" /><linearGradient
   x1="-77.301086"
   y1="417.93759"
   x2="-202.12041"
   y2="435.79095"
   id="linearGradient4157"
   xlink:href="#linearGradient848"
   gradientUnits="userSpaceOnUse"
   gradientTransform="matrix(1.2960014,-1.042794,0.78740205,0.97859606,162.00981,-57.627117)" /><linearGradient
   x1="-80.08638"
   y1="355.24506"
   x2="-122.42992"
   y2="483.12811"
   id="linearGradient4159"
   xlink:href="#linearGradient848"
   gradientUnits="userSpaceOnUse"
   gradientTransform="matrix(1.3538191,-1.0893156,0.75377426,0.93680284,162.00981,-57.627117)" /><linearGradient
   x1="-29.340315"
   y1="605.10358"
   x2="-76.779144"
   y2="538.38483"
   id="linearGradient4161"
   xlink:href="#linearGradient848"
   gradientUnits="userSpaceOnUse"
   gradientTransform="matrix(1.731271,-1.3930225,0.58943553,0.73256004,162.00981,-57.627117)" /><linearGradient
   x1="-22.038263"
   y1="299.23877"
   x2="-70.308418"
   y2="332.96103"
   id="linearGradient4163"
   xlink:href="#linearGradient848"
   gradientUnits="userSpaceOnUse"
   gradientTransform="matrix(1.087874,-0.87532978,0.93804398,1.1658162,162.00981,-57.627117)" /><linearGradient
   x1="-71.230118"
   y1="554.61108"
   x2="-65.325592"
   y2="560.9137"
   id="linearGradient4165"
   xlink:href="#linearGradient897"
   gradientUnits="userSpaceOnUse"
   gradientTransform="matrix(1.9191411,-1.5441874,0.53173463,0.66084842,162.00981,-57.627117)" /><linearGradient
   x1="-23.114986"
   y1="444.43933"
   x2="-11.89858"
   y2="462.71921"
   id="linearGradient4167"
   xlink:href="#linearGradient848"
   gradientUnits="userSpaceOnUse"
   gradientTransform="matrix(1.5861939,-1.27629,0.64334706,0.79956217,162.00981,-57.627117)" /><linearGradient
   x1="-55.499619"
   y1="495.63669"
   x2="7.9269457"
   y2="475.02667"
   id="linearGradient4169"
   xlink:href="#linearGradient848"
   gradientUnits="userSpaceOnUse"
   gradientTransform="matrix(1.6458289,-1.3242738,0.62003677,0.77059176,162.00981,-57.627117)" /><linearGradient
   x1="-0.52263796"
   y1="381.94522"
   x2="15.628285"
   y2="374.65659"
   id="linearGradient4171"
   xlink:href="#linearGradient848"
   gradientUnits="userSpaceOnUse"
   gradientTransform="matrix(1.4306941,-1.151171,0.71327175,0.88646572,162.00981,-57.627117)" /><linearGradient
   x1="56.59745"
   y1="194.81442"
   x2="62.270294"
   y2="124.62844"
   id="linearGradient4173"
   xlink:href="#linearGradient1105"
   gradientUnits="userSpaceOnUse"
   gradientTransform="matrix(3.2441917,-2.6103552,0.91718611,1.1398938,63.805474,324.09667)" /><linearGradient
   x1="56.59745"
   y1="194.81442"
   x2="62.270294"
   y2="124.62844"
   id="linearGradient4176"
   xlink:href="#linearGradient1105"
   gradientUnits="userSpaceOnUse"
   gradientTransform="matrix(3.3228241,-2.7787693,0.93941678,1.2134371,72.448264,317.59775)" /><linearGradient
   x1="-0.52263796"
   y1="381.94522"
   x2="15.628285"
   y2="374.65659"
   id="linearGradient4180"
   xlink:href="#linearGradient848"
   gradientUnits="userSpaceOnUse"
   gradientTransform="matrix(1.4653711,-1.2254419,0.73055996,0.94365845,173.03287,-88.753977)" /><linearGradient
   x1="-55.499619"
   y1="495.63669"
   x2="7.9269457"
   y2="475.02667"
   id="linearGradient4183"
   xlink:href="#linearGradient848"
   gradientUnits="userSpaceOnUse"
   gradientTransform="matrix(1.6857203,-1.4097129,0.63506516,0.82030857,173.03287,-88.753977)" /><linearGradient
   x1="-23.114986"
   y1="444.43933"
   x2="-11.89858"
   y2="462.71921"
   id="linearGradient4186"
   xlink:href="#linearGradient848"
   gradientUnits="userSpaceOnUse"
   gradientTransform="matrix(1.6246399,-1.3586333,0.65894044,0.85114808,173.03287,-88.753977)" /><linearGradient
   x1="-71.230118"
   y1="554.61108"
   x2="-65.325592"
   y2="560.9137"
   id="linearGradient4189"
   xlink:href="#linearGradient897"
   gradientUnits="userSpaceOnUse"
   gradientTransform="matrix(1.9656571,-1.6438148,0.54462276,0.70348484,173.03287,-88.753977)" /><linearGradient
   x1="-22.038263"
   y1="299.23877"
   x2="-70.308418"
   y2="332.96103"
   id="linearGradient4192"
   xlink:href="#linearGradient848"
   gradientUnits="userSpaceOnUse"
   gradientTransform="matrix(1.1142418,-0.93180404,0.9607802,1.241032,173.03287,-88.753977)" /><linearGradient
   x1="-29.340315"
   y1="605.10358"
   x2="-76.779144"
   y2="538.38483"
   id="linearGradient4197"
   xlink:href="#linearGradient848"
   gradientUnits="userSpaceOnUse"
   gradientTransform="matrix(1.7732334,-1.4828971,0.60372221,0.77982313,173.03287,-88.753977)" /><linearGradient
   x1="-80.08638"
   y1="355.24506"
   x2="-122.42992"
   y2="483.12811"
   id="linearGradient4201"
   xlink:href="#linearGradient848"
   gradientUnits="userSpaceOnUse"
   gradientTransform="matrix(1.3866328,-1.1595957,0.77204417,0.9972432,173.03287,-88.753977)" /><linearGradient
   x1="-77.301086"
   y1="417.93759"
   x2="-202.12041"
   y2="435.79095"
   id="linearGradient4204"
   xlink:href="#linearGradient848"
   gradientUnits="userSpaceOnUse"
   gradientTransform="matrix(1.3274138,-1.1100727,0.80648702,1.0417328,173.03287,-88.753977)" /><linearGradient
   x1="-92.295601"
   y1="290.00537"
   x2="-39.655563"
   y2="292.62564"
   id="linearGradient4207"
   xlink:href="#linearGradient848"
   gradientUnits="userSpaceOnUse"
   gradientTransform="matrix(1.0342174,-0.86488222,1.0351224,1.3370592,173.03287,-88.753977)" /><linearGradient
   x1="-30.665005"
   y1="325.06747"
   x2="-35.799656"
   y2="279.81659"
   id="linearGradient4210"
   xlink:href="#linearGradient2900"
   gradientUnits="userSpaceOnUse"
   gradientTransform="matrix(1.1534671,-0.96460688,0.92810756,1.1988291,173.03287,-88.753977)" /><linearGradient
   x1="10.003294"
   y1="343.76309"
   x2="6.7183514"
   y2="321.75717"
   id="linearGradient4213"
   xlink:href="#linearGradient2900"
   gradientUnits="userSpaceOnUse"
   gradientTransform="matrix(1.3161769,-1.1006757,0.81337306,1.0506274,173.03287,-88.753977)" /></defs>
<path
   d="m 404.38153,471.26172 c 0.0191,17.46096 -76.31924,31.61774 -170.49393,31.61774 -94.17469,0 -170.513005,-14.15678 -170.493923,-31.61774 -0.01908,-17.46096 76.319233,-31.61774 170.493923,-31.61774 94.17469,0 170.51301,14.15678 170.49393,31.61774 z"
   transform="matrix(1.34346,0,0,1.39344,-81.8869,-193.706)"
   id="path4912"
   style="fill:url(#radialGradient4944) #000000;fill-opacity:1;stroke:#7b0000;stroke-width:0pt;stroke-miterlimit:4;stroke-opacity:1;stroke-dasharray:none" /><path
   d="m 277.19656,7.985198 c 0,157.044512 -119.43492,284.354252 -266.76535,284.354252 -147.33043,0 -266.76535,-127.30974 -266.76535,-284.354252 0,-157.044518 119.43492,-284.354248 266.76535,-284.354248 147.33043,0 266.76535,127.30973 266.76535,284.354248 z"
   transform="matrix(0.885503,0,0,0.839217,227.802,232.649)"
   id="path4864"
   style="fill:url(#radialGradient4892) #000000;fill-opacity:1;stroke:#7b0000;stroke-width:0pt;stroke-miterlimit:4;stroke-opacity:1;stroke-dasharray:none" /><path
   d="m 376.39771,371.76376 c 0.0118,38.64521 -34.32975,69.97908 -76.69636,69.97908 -42.3666,0 -76.7082,-31.33387 -76.69635,-69.97908 -0.0118,-38.64521 34.32975,-69.97908 76.69635,-69.97908 42.36661,0 76.70821,31.33387 76.69636,69.97908 l 0,0 z"
   transform="matrix(1.45946,0,0,1,-195.741,-13.4737)"
   id="path4946"
   style="fill:url(#radialGradient4972) #000000;fill-opacity:1;stroke:#7b0000;stroke-width:0pt;stroke-miterlimit:4;stroke-opacity:1;stroke-dasharray:none" /><path
   d="m 120.52728,395.60181 c 0,0 21.0078,6.09989 48.97166,9.58704 11.32467,1.41221 54.41295,6.34818 87.44939,6.21863 0,0 40.23552,0.0457 62.44534,-3.10931 23.23898,-3.30118 36.40486,-7.51418 43.73209,-15.92171 0.19087,-2.00464 3.53663,-8.53911 -5.49654,-14.84065 -23.09426,-16.11057 -52.94998,-20.52042 -110.9411,-34.29249 -64.127,-16.1227 -83.29128,-31.56149 -92.8653,-42.73463 -9.07685,-11.19791 1.70382,-34.45383 53.37652,-45.86235 26.16241,-6.36659 123.60277,-7.5364 123.60277,-7.5364 -27.95505,-22.19469 -80.43759,-61.93067 -91.16526,-70.38102 -9.40866,-7.41134 -24.57035,-18.78483 -26.20016,-28.94842 -2.19861,-9.89378 13.37492,-14.65745 21.61972,-15.2071 26.56661,-1.83218 62.84376,1.28253 95.09012,7.69516 16.20882,3.22335 19.05466,2.74827 19.05466,2.74827 23.08547,1.09931 41.04083,-10.99307 40.12474,-36.46038 -0.18322,-25.833726 -26.01233,-46.548603 -54.59895,-47.453444 -26.92018,-0.852094 -93.25794,3.847576 -93.25794,3.847576 77.31798,15.939963 89.95772,20.007744 93.99081,29.314873 2.38183,5.49654 -3.9787,10.961515 -25.28408,9.893765 -23.19489,-1.16245 -70.72213,-6.77906 -70.72213,-6.77906 -45.25483,-6.962282 -76.76832,-13.558129 -90.50967,4.397231 -8.97739,11.730469 1.28253,26.016949 5.31332,34.444969 17.95537,31.33028 49.00385,52.82523 68.70674,67.97387 7.41341,5.69982 30.04774,18.32179 30.04774,18.32179 -70.35569,-19.23789 -126.42038,-8.42803 -161.964666,10.2602 -40.857604,24.18477 -33.868518,64.9968 30.963836,103.15172 38.29255,22.5358 57.35854,33.36185 120.05537,41.05922 36.6472,5.84342 42.10791,8.23438 41.82939,11.28471 -0.39214,4.29458 -43.37561,5.92204 -55.19029,6.73685 -30.05668,2.07287 -107.78947,2.59109 -108.17813,2.59109 z"
   id="path4839"
   style="fill:#ffffff;fill-opacity:1;fill-rule:evenodd;stroke:#000000;stroke-width:0pt;stroke-linecap:butt;stroke-linejoin:miter;stroke-miterlimit:4;stroke-opacity:1;stroke-dasharray:none" /><rect
   width="512"
   height="512"
   x="0.171"
   y="0.20100001"
   id="rect4772"
   style="fill:none;display:none" />



<g
   id="g4788"
   style="display:none">
	<g
   id="g4790"
   style="display:inline">
	</g>
</g>


<g
   id="g4806"
   style="display:none">
	<g
   id="g4808"
   style="display:inline">
		<path
   d="m 349.098,256.651 c -0.265,-0.254 37.637,27.605 39.421,25.012 6.362,-9.252 82.046,-93.137 84.784,-116.236 0.242,-2.003 -0.516,-4.096 -0.516,-4.096 0,0 -1.19,-0.144 -6.325,-4.314 -2.692,-2.192 -5.483,-4.581 -5.483,-4.581 -16.054,0.998 -57.885,41.559 -111.062,103.568"
   id="path4810"
   style="fill:#050505;display:none" />
	</g>
</g>



<g
   id="g4796"
   style="stroke:none">

	<g
   id="g4800"
   style="stroke:none">

	</g>
</g><g
   id="g4774">

</g><path
   d="m 333.10198,429.24145 128.73238,30.44057 c 7.63088,1.80445 17.17848,-4.43139 20.50271,-11.53319 l 59.63645,-127.40526 c 6.28149,-13.41953 -1.80773,-41.20336 -16.62464,-41.22486 l -94.42184,-0.13704 c -13.00512,-0.0189 -25.23333,10.0755 -33.36309,20.22638 l -74.67846,93.24401 c -3.90976,4.88175 0.0323,12.85371 2.51608,18.59377 l 7.70041,17.79562 z"
   transform="matrix(1.1324418,0,0,1.1279228,-124.13028,-27.887961)"
   id="path832-8"
   style="opacity:0.52083333;fill:#000000;fill-opacity:1;fill-rule:evenodd;stroke-width:1pt;filter:url(#filter4068)" /><path
   d="m 420.36196,267.6688 23.7814,-30.08239 29.61246,-4.15137 c 0,0 20.92365,13.77643 15.05002,26.50691 -5.87364,12.73047 -9.53823,11.5304 -9.53823,11.5304 l -8.94171,16.71775 -50.03987,-10.75078 0.076,-9.77052 z"
   id="path839"
   style="fill:url(#linearGradient4213);fill-opacity:1;fill-rule:evenodd;stroke-width:1pt" /><path
   d="m 326.99847,398.09927 106.41649,26.15328 c 6.30806,1.5503 14.20056,-3.80727 16.94854,-9.90884 l 49.29841,-109.46128 c 5.19259,-11.5295 -1.49436,-35.40021 -13.74275,-35.41868 l -78.05371,-0.11773 c -10.75066,-0.0163 -20.85909,8.65644 -27.57956,17.37765 l -61.73287,80.11136 c -3.232,4.1942 0.0267,11.04337 2.07991,15.975 l 6.36554,15.28924 z"
   id="path832"
   style="fill:url(#linearGradient4210);fill-opacity:1;fill-rule:evenodd;stroke-width:1pt" /><path
   d="m 326.93431,395.22917 107.9551,29.38995 c 6.27046,1.7071 12.0279,-6.32695 14.59733,-10.07495 2.58973,-3.94264 0.68466,-39.92837 -28.11779,-38.23484 l -102.4414,-9.81308 c -4.07194,-0.39006 -1.22563,9.46163 0.50041,13.60731 l 7.50635,15.12561 z"
   id="path906"
   style="fill:url(#linearGradient4207);fill-opacity:1;fill-rule:evenodd;stroke:#000000;stroke-width:1.50932713pt;stroke-opacity:0.22314052" /><path
   d="m 378.72961,498.40629 53.01824,-87.48053 c 2.27577,-3.75501 -0.0869,-23.57737 -4.32302,-24.13469 l -100.74458,-13.2541 c -2.78597,-0.36652 -59.36417,76.80912 -58.45744,79.57142 l 5.69563,17.35114 c 1.30772,3.98384 4.83104,7.64953 8.73211,8.78066 l 91.03837,26.39703 c 2.75848,0.79983 3.51435,-4.71246 5.04069,-7.23093 z"
   id="path835"
   style="fill:url(#linearGradient4204);fill-opacity:1;fill-rule:evenodd;stroke-width:1pt" /><path
   d="m 267.65931,451.77915 59.85892,-76.85939 -2.26663,-7.34462 97.30729,11.73693 5.93123,8.54466 -54.4277,91.04895 -7.21018,-7.1807 -92.54136,-21.95443 c -2.25097,-0.53403 -8.10422,3.87382 -6.65157,2.0086 z"
   id="path830"
   style="fill:url(#linearGradient4201);fill-opacity:1;fill-rule:evenodd;stroke-width:1pt" /><path
   d="m 378.64852,499.18492 -3.46203,-18.21382 c -0.82756,-4.35375 -3.85962,-9.42163 -8.03036,-10.37274 l -91.61187,-20.89148 c -2.74295,-0.62552 -8.3093,1.41784 -7.40254,4.18014 l 5.69563,17.35113 c 1.30772,3.98384 4.83104,7.64953 8.73212,8.78066 l 91.03837,26.39703 c 2.75847,0.79983 5.5957,-4.31092 5.04068,-7.23092 z"
   id="path826"
   style="fill:#0f0f0f;fill-rule:evenodd;stroke-width:1pt" /><path
   d="m 369.96302,469.4968 53.89082,-88.46767 c 1.17753,0.27174 7.41197,1.86405 3.27035,8.88146 -4.14164,7.01737 -50.19895,84.88504 -51.40176,86.14223 -1.69042,-4.38757 -3.16652,-5.68748 -5.75941,-6.55602 z"
   id="path827"
   style="fill:url(#linearGradient4197);fill-opacity:1;fill-rule:evenodd;stroke-width:1pt" /><path
   d="m 360.2712,424.29343 20.57044,6.25329 9.78155,-13.86624 -23.00956,-4.92424 -7.34243,12.53719 z"
   id="path828"
   style="fill:#ffffff;fill-opacity:0.12578616;fill-rule:evenodd;stroke-width:3.5;stroke-linecap:round;stroke-linejoin:round;stroke-opacity:0.22314052" /><path
   d="m 325.89179,419.63729 9.28533,-12.74045 -18.90034,-4.09602 -7.20973,11.00468 16.82474,5.83179 z"
   id="path829"
   style="fill:#ffffff;fill-opacity:0.12578616;fill-rule:evenodd;stroke-width:3.5;stroke-linecap:round;stroke-linejoin:round;stroke-opacity:0.22314052" /><path
   d="m 421.91534,378.24855 c 34.38189,4.01166 25.48685,41.61046 28.13864,35.46308 l 11.99057,-27.79677 c 5.0108,-11.61606 -1.91628,-37.95871 -14.08635,-39.39599 l -106.93727,-12.62937 -27.06308,32.99921 107.95749,11.35984 z"
   id="path833"
   style="fill:url(#linearGradient4192);fill-opacity:1;fill-rule:evenodd;stroke-width:1pt" /><path
   d="m 312.47633,457.65754 8.49343,2.76189 54.231,-84.86073 -5.16287,-1.36867 -57.56156,83.46751 z"
   id="path836"
   style="fill:url(#linearGradient4189);fill-opacity:1;fill-rule:evenodd;stroke-width:1pt" /><path
   d="m 433.3137,356.10261 c 0,0 21.22792,-58.2665 30.13651,-56.47637 8.90859,1.79012 -22.8788,63.20099 -28.28501,64.16814 -5.4062,0.96713 -1.8515,-7.69177 -1.8515,-7.69177 z"
   id="path837"
   style="fill:url(#linearGradient4186);fill-opacity:1;fill-rule:evenodd;stroke-width:1pt" /><path
   d="m 479.78303,277.43831 c 1.74161,-2.16722 9.13272,-7.63739 7.2289,-3.91297 -1.90381,3.72444 -37.64185,81.23305 -40.6288,84.44174 -2.98696,3.20868 0.2337,-5.88168 0.2337,-5.88168 l 33.1662,-74.64709 z"
   id="path838"
   style="fill:url(#linearGradient4183);fill-opacity:1;fill-rule:evenodd;stroke-width:1pt" /><path
   d="m 466.70834,242.88251 c 0,0 2.55264,-9.95323 5.14366,-5.72305 2.59106,4.23019 -9.57132,30.0383 -12.47718,32.46838 -2.90587,2.43008 7.33352,-26.74533 7.33352,-26.74533 z"
   id="path840"
   style="fill:url(#linearGradient4180);fill-opacity:1;fill-rule:evenodd;stroke-width:1pt" /><path
   d="m 272.40097,462.30608 c 0,0 -2.10441,-8.90181 4.22275,-7.796 6.32713,1.1058 84.38351,17.56919 88.75671,19.24287 4.54019,1.88939 4.72161,7.42391 5.73326,12.26412 1.01164,4.84018 -98.71272,-23.71099 -98.71272,-23.71099 z"
   id="path923"
   style="fill:#b7b7b7;fill-rule:evenodd;stroke:#000000;stroke-width:1.50932713pt" /><path
   d="m 347.50609,332.06188 c 0,0 39.30175,15.57178 56.00058,-3.60937 16.69885,-19.18116 34.58817,-49.79078 49.42633,-47.29528 14.83816,2.4955 23.35261,-10.58653 23.35261,-10.58653 l -66.82656,0.73945 c -11.64005,0.12879 -22.51563,9.49878 -29.786,18.94739 l -32.16696,41.80434 z"
   id="path1081"
   style="fill:url(#linearGradient4176);fill-opacity:1;fill-rule:evenodd;stroke:none" /></svg>